<mxfile host="app.diagrams.net" modified="2023-10-02T12:41:44.841Z" agent="Mozilla/5.0 (Macintosh; Intel Mac OS X 10_15_7) AppleWebKit/537.36 (KHTML, like Gecko) Chrome/116.0.0.0 Safari/537.36" etag="RQMMMLHY3-roZ_UWx2vN" version="21.7.5" type="device">
  <diagram name="PÃ¡gina-1" id="C_dbN7B-5L8tj6vzn5iY">
    <mxGraphModel dx="1068" dy="625" grid="1" gridSize="10" guides="1" tooltips="1" connect="1" arrows="1" fold="1" page="1" pageScale="1" pageWidth="827" pageHeight="1169" math="0" shadow="0">
      <root>
        <mxCell id="0" />
        <mxCell id="1" parent="0" />
        <mxCell id="NJeRlLOLdh8RHzv_ufBs-1" value="" style="rounded=1;whiteSpace=wrap;html=1;fillColor=#FAFAFA;strokeColor=#666666;fontColor=#333333;arcSize=5;strokeWidth=3;" parent="1" vertex="1">
          <mxGeometry x="160" y="120" width="480" height="400" as="geometry" />
        </mxCell>
        <mxCell id="NJeRlLOLdh8RHzv_ufBs-2" value="" style="ellipse;whiteSpace=wrap;html=1;aspect=fixed;fillColor=#dae8fc;strokeColor=#6c8ebf;" parent="1" vertex="1">
          <mxGeometry x="230" y="180" width="40" height="40" as="geometry" />
        </mxCell>
        <mxCell id="NJeRlLOLdh8RHzv_ufBs-3" value="" style="ellipse;whiteSpace=wrap;html=1;aspect=fixed;fillColor=#dae8fc;strokeColor=#6c8ebf;" parent="1" vertex="1">
          <mxGeometry x="260" y="270" width="40" height="40" as="geometry" />
        </mxCell>
        <mxCell id="NJeRlLOLdh8RHzv_ufBs-4" value="" style="ellipse;whiteSpace=wrap;html=1;aspect=fixed;fillColor=#dae8fc;strokeColor=#6c8ebf;" parent="1" vertex="1">
          <mxGeometry x="350" y="180" width="40" height="40" as="geometry" />
        </mxCell>
        <mxCell id="NJeRlLOLdh8RHzv_ufBs-5" value="" style="ellipse;whiteSpace=wrap;html=1;aspect=fixed;fillColor=#dae8fc;strokeColor=#6c8ebf;" parent="1" vertex="1">
          <mxGeometry x="390" y="240" width="40" height="40" as="geometry" />
        </mxCell>
        <mxCell id="NJeRlLOLdh8RHzv_ufBs-6" value="" style="ellipse;whiteSpace=wrap;html=1;aspect=fixed;fillColor=#dae8fc;strokeColor=#6c8ebf;" parent="1" vertex="1">
          <mxGeometry x="470" y="150" width="40" height="40" as="geometry" />
        </mxCell>
        <mxCell id="NJeRlLOLdh8RHzv_ufBs-7" value="" style="ellipse;whiteSpace=wrap;html=1;aspect=fixed;fillColor=#dae8fc;strokeColor=#6c8ebf;" parent="1" vertex="1">
          <mxGeometry x="220" y="360" width="40" height="40" as="geometry" />
        </mxCell>
        <mxCell id="NJeRlLOLdh8RHzv_ufBs-8" value="" style="ellipse;whiteSpace=wrap;html=1;aspect=fixed;fillColor=#dae8fc;strokeColor=#6c8ebf;" parent="1" vertex="1">
          <mxGeometry x="300" y="350" width="40" height="40" as="geometry" />
        </mxCell>
        <mxCell id="NJeRlLOLdh8RHzv_ufBs-9" value="" style="ellipse;whiteSpace=wrap;html=1;aspect=fixed;fillColor=#f8cecc;strokeColor=#b85450;" parent="1" vertex="1">
          <mxGeometry x="380" y="330" width="40" height="40" as="geometry" />
        </mxCell>
        <mxCell id="NJeRlLOLdh8RHzv_ufBs-11" value="" style="ellipse;whiteSpace=wrap;html=1;aspect=fixed;fillColor=#f8cecc;strokeColor=#b85450;" parent="1" vertex="1">
          <mxGeometry x="450" y="280" width="40" height="40" as="geometry" />
        </mxCell>
        <mxCell id="NJeRlLOLdh8RHzv_ufBs-12" value="" style="ellipse;whiteSpace=wrap;html=1;aspect=fixed;fillColor=#f8cecc;strokeColor=#b85450;" parent="1" vertex="1">
          <mxGeometry x="450" y="360" width="40" height="40" as="geometry" />
        </mxCell>
        <mxCell id="NJeRlLOLdh8RHzv_ufBs-13" value="" style="ellipse;whiteSpace=wrap;html=1;aspect=fixed;fillColor=#f8cecc;strokeColor=#b85450;" parent="1" vertex="1">
          <mxGeometry x="520" y="370" width="40" height="40" as="geometry" />
        </mxCell>
        <mxCell id="NJeRlLOLdh8RHzv_ufBs-14" value="" style="ellipse;whiteSpace=wrap;html=1;aspect=fixed;fillColor=#f8cecc;strokeColor=#b85450;" parent="1" vertex="1">
          <mxGeometry x="540" y="230" width="40" height="40" as="geometry" />
        </mxCell>
        <mxCell id="NJeRlLOLdh8RHzv_ufBs-15" value="" style="ellipse;whiteSpace=wrap;html=1;aspect=fixed;fillColor=#f8cecc;strokeColor=#b85450;" parent="1" vertex="1">
          <mxGeometry x="394" y="420" width="40" height="40" as="geometry" />
        </mxCell>
        <mxCell id="NJeRlLOLdh8RHzv_ufBs-16" value="" style="ellipse;whiteSpace=wrap;html=1;aspect=fixed;fillColor=#dae8fc;strokeColor=#6c8ebf;" parent="1" vertex="1">
          <mxGeometry x="260" y="430" width="40" height="40" as="geometry" />
        </mxCell>
        <mxCell id="NJeRlLOLdh8RHzv_ufBs-38" value="&lt;font style=&quot;font-size: 19px;&quot;&gt;Verdadero positivo&lt;/font&gt;" style="text;html=1;strokeColor=none;fillColor=none;align=center;verticalAlign=middle;whiteSpace=wrap;rounded=0;" parent="1" vertex="1">
          <mxGeometry x="240" y="220" width="150" height="30" as="geometry" />
        </mxCell>
        <mxCell id="NJeRlLOLdh8RHzv_ufBs-41" value="&lt;font style=&quot;font-size: 19px;&quot;&gt;Verdadero negativo&lt;/font&gt;" style="text;html=1;strokeColor=none;fillColor=none;align=center;verticalAlign=middle;whiteSpace=wrap;rounded=0;" parent="1" vertex="1">
          <mxGeometry x="420" y="435" width="150" height="30" as="geometry" />
        </mxCell>
        <mxCell id="NJeRlLOLdh8RHzv_ufBs-43" value="" style="endArrow=block;html=1;strokeWidth=2;endFill=1;curved=1;startSize=3;endSize=3;" parent="1" target="NJeRlLOLdh8RHzv_ufBs-3" edge="1">
          <mxGeometry width="50" height="50" relative="1" as="geometry">
            <mxPoint x="320" y="260" as="sourcePoint" />
            <mxPoint x="330" y="290" as="targetPoint" />
            <Array as="points">
              <mxPoint x="310" y="270" />
            </Array>
          </mxGeometry>
        </mxCell>
        <mxCell id="Tarli3j6fYgY9xUZEK2o-1" value="" style="endArrow=none;html=1;curved=1;strokeWidth=3;" edge="1" parent="1">
          <mxGeometry width="50" height="50" relative="1" as="geometry">
            <mxPoint x="570" y="180" as="sourcePoint" />
            <mxPoint x="570" y="180" as="targetPoint" />
            <Array as="points">
              <mxPoint x="610" y="250" />
              <mxPoint x="550" y="320" />
              <mxPoint x="470" y="340" />
              <mxPoint x="390" y="310" />
              <mxPoint x="330" y="330" />
              <mxPoint x="240" y="330" />
              <mxPoint x="200" y="230" />
              <mxPoint x="230" y="160" />
              <mxPoint x="370" y="160" />
              <mxPoint x="530" y="120" />
            </Array>
          </mxGeometry>
        </mxCell>
        <mxCell id="Tarli3j6fYgY9xUZEK2o-6" value="" style="endArrow=block;html=1;strokeWidth=2;endFill=1;curved=1;startSize=3;endSize=3;" edge="1" parent="1">
          <mxGeometry width="50" height="50" relative="1" as="geometry">
            <mxPoint x="520.5" y="410" as="sourcePoint" />
            <mxPoint x="497.5" y="429" as="targetPoint" />
            <Array as="points">
              <mxPoint x="510.5" y="420" />
            </Array>
          </mxGeometry>
        </mxCell>
        <mxCell id="Tarli3j6fYgY9xUZEK2o-7" value="&lt;font style=&quot;font-size: 19px;&quot;&gt;Falso positivo&lt;/font&gt;" style="text;html=1;strokeColor=none;fillColor=none;align=center;verticalAlign=middle;whiteSpace=wrap;rounded=0;" vertex="1" parent="1">
          <mxGeometry x="420" y="200" width="150" height="30" as="geometry" />
        </mxCell>
        <mxCell id="Tarli3j6fYgY9xUZEK2o-8" value="" style="endArrow=block;html=1;strokeWidth=2;endFill=1;curved=1;startSize=3;endSize=3;" edge="1" parent="1">
          <mxGeometry width="50" height="50" relative="1" as="geometry">
            <mxPoint x="506.5" y="230" as="sourcePoint" />
            <mxPoint x="530" y="250" as="targetPoint" />
            <Array as="points">
              <mxPoint x="507" y="240" />
            </Array>
          </mxGeometry>
        </mxCell>
        <mxCell id="Tarli3j6fYgY9xUZEK2o-9" value="&lt;font style=&quot;font-size: 19px;&quot;&gt;Falso negativo&lt;/font&gt;" style="text;html=1;strokeColor=none;fillColor=none;align=center;verticalAlign=middle;whiteSpace=wrap;rounded=0;" vertex="1" parent="1">
          <mxGeometry x="260" y="400" width="150" height="30" as="geometry" />
        </mxCell>
        <mxCell id="Tarli3j6fYgY9xUZEK2o-10" value="" style="endArrow=block;html=1;strokeWidth=2;endFill=1;curved=1;startSize=3;endSize=3;exitX=1;exitY=0.75;exitDx=0;exitDy=0;exitPerimeter=0;" edge="1" parent="1" source="NJeRlLOLdh8RHzv_ufBs-8">
          <mxGeometry width="50" height="50" relative="1" as="geometry">
            <mxPoint x="350" y="390" as="sourcePoint" />
            <mxPoint x="350" y="409" as="targetPoint" />
            <Array as="points">
              <mxPoint x="350" y="390" />
            </Array>
          </mxGeometry>
        </mxCell>
      </root>
    </mxGraphModel>
  </diagram>
</mxfile>
